<?xml version="1.0" standalone="no"?>
<!DOCTYPE svg PUBLIC "-//W3C//DTD SVG 20010904//EN"
 "http://www.w3.org/TR/2001/REC-SVG-20010904/DTD/svg10.dtd">
<svg version="1.0" xmlns="http://www.w3.org/2000/svg"
 width="5864.000000pt" height="6588.000000pt" viewBox="0 0 5864.000000 6588.000000"
 preserveAspectRatio="xMidYMid meet">

<g transform="translate(0.000000,6588.000000) scale(0.100000,-0.100000)"
fill="#000000" stroke="none">
<path d="M28175 65869 c-3158 -101 -6256 -1049 -8825 -2699 -3027 -1945 -3889
-2608 -4036 -3105 -25 -86 -23 -221 6 -305 47 -142 82 -195 448 -682 84 -111
349 -475 590 -808 759 -1048 1560 -2142 3402 -4645 1374 -1867 1897 -2580
2105 -2870 165 -231 570 -788 1671 -2300 3238 -4445 4803 -6744 5097 -7486 53
-133 54 -155 12 -284 -71 -220 -219 -406 -440 -555 -238 -159 -732 -533 -1150
-868 -1081 -870 -2150 -1883 -3216 -3047 -672 -735 -1373 -1564 -2115 -2500
-545 -688 -1386 -1793 -1755 -2305 -241 -333 -369 -506 -999 -1350 -812 -1087
-1080 -1459 -1451 -2012 -153 -229 -158 -238 -165 -300 l-6 -63 -59 -34 c-122
-71 -303 -264 -361 -386 l-28 -60 0 -428 c0 -458 -7 -561 -66 -977 -304 -2151
-1069 -5493 -1864 -8140 -221 -734 -405 -1361 -730 -2475 -160 -550 -383
-1313 -495 -1695 -465 -1588 -683 -2392 -920 -3395 -197 -834 -415 -1918 -415
-2064 1 -150 74 -207 236 -181 144 23 302 107 504 268 112 89 414 388 557 552
417 478 938 1191 1523 2086 870 1330 1564 2181 2177 2673 340 272 681 430 931
431 68 0 76 -2 102 -28 60 -60 61 -148 4 -458 -57 -312 -204 -840 -449 -1614
-328 -1035 -461 -1558 -521 -2050 -26 -206 -25 -621 0 -780 116 -735 535
-1125 1304 -1215 162 -19 471 -19 632 0 597 70 1504 349 2580 793 118 49 216
88 217 87 2 -1 -25 -109 -59 -241 -53 -207 -61 -252 -62 -334 -2 -154 26 -176
207 -167 387 18 731 279 1028 777 73 122 198 379 259 530 l42 105 131 75 c72
41 209 127 306 191 558 367 841 701 841 992 0 119 -56 176 -161 164 -58 -7
-236 -71 -515 -187 -120 -49 -219 -89 -220 -87 -1 1 76 225 172 497 96 272
239 687 319 922 129 382 151 440 211 545 90 160 216 350 315 475 94 118 341
369 445 450 202 160 450 294 684 372 271 90 463 120 765 120 190 0 234 -3 325
-23 209 -45 402 -128 565 -243 115 -80 320 -284 414 -411 40 -54 159 -241 263
-415 212 -352 396 -638 453 -701 31 -34 44 -41 74 -41 178 0 547 218 819 484
226 221 353 401 390 556 39 164 41 540 3 720 -38 184 -103 355 -193 514 -273
476 -782 840 -1330 950 -491 99 -1130 36 -1738 -171 -270 -92 -665 -275 -935
-433 -441 -260 -900 -606 -1327 -1002 -60 -55 -108 -97 -108 -93 0 3 9 63 20
133 75 490 107 985 79 1215 -29 241 -89 327 -217 314 -280 -29 -567 -496 -836
-1363 -62 -202 -621 -2219 -1028 -3714 l-83 -305 -105 -43 c-995 -413 -1809
-615 -2305 -572 -360 31 -588 127 -776 328 -258 275 -340 725 -248 1357 37
254 254 1087 512 1970 248 847 464 1694 482 1890 14 153 -33 305 -120 389
-121 118 -348 164 -675 137 -791 -66 -1578 -463 -2455 -1239 -169 -150 -604
-586 -776 -777 -576 -642 -1116 -1354 -1714 -2258 -93 -141 -171 -253 -173
-248 -8 24 247 1105 494 2096 337 1348 665 2583 1178 4425 700 2520 1154 4305
1476 5815 284 1333 400 2088 441 2870 20 387 1 1039 -37 1277 l-5 36 78 -5
c159 -10 304 42 414 149 35 35 145 137 244 228 655 602 2074 2074 3526 3660
3090 3376 5861 6690 6992 8362 l124 183 72 1086 73 1087 -169 243 c-1269 1829
-2368 3524 -4918 7584 -920 1464 -1529 2431 -1832 2905 -83 129 -205 325 -273
435 -561 912 -1238 1981 -2130 3360 -993 1536 -1256 1968 -1424 2340 -262 580
-205 834 259 1144 180 121 272 171 698 381 3987 1963 7468 3034 10547 3245
531 36 1279 47 1755 25 1632 -75 3099 -384 4753 -1001 472 -176 815 -316 1699
-690 627 -265 974 -406 1268 -515 50 -18 126 -49 170 -68 185 -81 449 -120
550 -82 59 23 75 47 75 117 0 69 -41 157 -127 270 -120 157 -87 134 -1123 815
-1289 847 -1338 879 -1590 1031 -1687 1018 -3566 1724 -5550 2087 -1211 221
-2468 315 -3705 275z"/>
<path d="M31545 47280 c-342 -28 -765 -114 -1355 -275 -864 -236 -1273 -313
-1765 -331 -140 -5 -205 -3 -295 10 -195 27 -322 16 -433 -39 -107 -54 -157
-127 -165 -240 -3 -56 1 -84 20 -140 18 -53 261 -455 976 -1615 905 -1468 955
-1546 1000 -1574 64 -40 163 -74 243 -82 238 -24 489 129 759 466 144 178 595
711 1270 1500 1019 1190 1188 1403 1306 1645 148 306 53 425 -453 569 -289 82
-450 105 -768 111 -126 2 -279 0 -340 -5z"/>
<path d="M29950 41902 c0 -4 -32 -474 -70 -1046 -39 -571 -70 -1058 -70 -1083
0 -42 26 -83 478 -761 1519 -2279 2649 -4044 5662 -8842 2224 -3542 3007
-4774 4190 -6595 146 -225 279 -432 295 -460 44 -78 134 -210 309 -455 348
-489 451 -687 463 -889 l6 -94 -104 -101 c-981 -952 -2850 -1851 -5329 -2562
-1713 -492 -3605 -855 -5095 -979 -746 -62 -1848 1 -2975 171 -1240 187 -2324
418 -5080 1084 -2108 509 -2986 704 -3895 865 -143 25 -268 47 -278 50 -30 6
-137 -63 -210 -136 -108 -108 -149 -226 -127 -361 35 -208 222 -411 505 -550
50 -25 214 -114 365 -200 964 -544 2000 -1077 2925 -1505 3882 -1797 7233
-2499 10520 -2203 2511 226 5045 1065 7665 2538 622 349 848 494 1880 1201
1570 1075 2078 1515 2175 1887 19 75 19 209 -1 288 -26 106 -119 277 -270 503
-357 530 -4164 5833 -8600 11978 -814 1128 -1654 2291 -1865 2585 -2472 3435
-3022 4280 -3023 4650 0 104 22 140 194 315 82 85 150 161 150 169 0 8 -125
97 -277 199 -153 101 -331 221 -395 265 -65 45 -118 78 -118 74z"/>
<path d="M29175 35296 c-236 -46 -475 -213 -683 -479 -958 -1226 -3464 -5386
-6690 -11107 -379 -673 -386 -691 -386 -990 0 -158 4 -196 22 -263 94 -341
323 -610 626 -736 144 -60 891 -232 1496 -345 1002 -186 1867 -288 2960 -348
318 -18 1697 -18 2030 0 1992 105 3806 390 6275 988 809 196 1713 435 1771
469 81 48 133 134 160 266 20 100 15 319 -11 464 -192 1069 -1228 3129 -3065
6095 -1039 1678 -2453 3799 -3493 5240 -315 436 -387 529 -456 592 -68 61
-176 121 -261 143 -81 22 -213 27 -295 11z"/>
<path d="M11705 27690 c-1289 -79 -2622 -748 -4035 -2026 -696 -629 -1417
-1416 -2156 -2354 -1846 -2343 -3052 -4702 -3659 -7155 -152 -616 -290 -1361
-354 -1915 -135 -1161 -70 -2244 190 -3205 137 -504 352 -1038 564 -1395 200
-338 440 -637 688 -857 506 -451 1095 -717 1820 -823 617 -90 1275 -55 1993
105 993 223 2185 715 3297 1362 660 384 1426 939 1801 1303 167 163 273 299
337 435 58 123 73 184 73 300 1 158 -33 176 -201 104 -196 -83 -768 -378
-1548 -797 -634 -340 -765 -409 -1015 -527 -1003 -478 -1833 -738 -2560 -804
-147 -14 -529 -14 -685 -1 -604 52 -1117 220 -1545 505 -172 114 -263 189
-419 340 -711 691 -1120 1749 -1253 3245 -20 227 -17 1070 5 1330 39 451 86
800 177 1295 564 3092 1929 5792 4130 8165 321 346 869 886 1100 1084 428 366
897 653 1355 831 860 333 1814 347 2600 38 706 -278 1314 -830 1796 -1633 272
-454 519 -1094 568 -1474 27 -207 56 -501 81 -811 31 -400 28 -383 73 -419
l38 -30 72 18 c163 41 323 129 408 223 56 63 112 168 133 248 8 33 22 130 30
215 76 765 33 1379 -149 2100 -360 1436 -1211 2441 -2385 2818 -405 130 -907
190 -1365 162z"/>
<path d="M34350 15245 c-713 -81 -1371 -395 -2050 -978 -244 -210 -628 -617
-906 -962 -779 -965 -1288 -1999 -1498 -3047 -189 -939 -86 -1586 315 -1979
215 -212 511 -341 929 -406 182 -28 736 -26 960 5 794 108 1563 409 2392 937
769 490 1435 1083 1863 1660 452 608 708 1239 785 1934 16 142 13 468 -5 606
-74 563 -326 1050 -789 1524 -385 393 -809 618 -1311 696 -151 24 -518 29
-685 10z m-644 -1419 c388 -82 719 -269 1034 -585 221 -222 399 -469 530 -736
166 -338 234 -621 234 -980 0 -583 -172 -999 -575 -1390 -217 -210 -468 -381
-817 -555 -467 -233 -884 -350 -1352 -380 -534 -34 -930 118 -1219 466 -229
276 -333 596 -334 1024 0 205 13 321 69 618 241 1282 680 2072 1329 2391 165
82 305 124 510 155 17 2 129 3 250 1 190 -3 237 -7 341 -29z"/>
<path d="M42389 15245 c-376 -63 -882 -325 -1515 -785 -743 -539 -1436 -1246
-2145 -2185 -726 -962 -1280 -1910 -1577 -2697 -272 -718 -380 -1489 -239
-1699 38 -57 81 -79 153 -79 52 0 74 6 131 36 140 72 282 202 404 367 79 106
87 122 105 219 111 593 473 1423 1089 2498 181 315 428 728 586 976 802 1265
1475 1927 2009 1980 87 8 111 2 161 -43 142 -128 213 -540 212 -1223 0 -405
-11 -503 -88 -815 -160 -647 -397 -1348 -944 -2790 -172 -452 -264 -766 -264
-905 -1 -104 18 -145 80 -172 98 -43 363 -2 547 85 308 146 533 402 762 865
435 883 825 1868 1080 2727 128 431 279 1068 318 1340 52 364 73 775 57 1115
-17 346 -52 538 -135 744 -70 174 -189 322 -313 389 -117 63 -295 82 -474 52z"/>
<path d="M47900 15253 c-266 -26 -451 -60 -659 -123 -893 -270 -1739 -948
-2585 -2070 -442 -586 -766 -1158 -1010 -1781 -191 -488 -327 -1041 -376
-1524 -17 -161 -14 -488 4 -626 89 -663 448 -1061 1091 -1212 201 -47 305 -59
591 -64 463 -9 841 41 1296 172 899 258 1944 863 2773 1605 240 215 529 520
701 741 498 638 767 1261 860 1995 20 156 22 477 5 619 -67 548 -300 1020
-736 1495 -413 451 -924 714 -1489 769 -100 10 -383 13 -466 4z m-765 -1422
c555 -113 1039 -466 1420 -1036 277 -415 423 -909 401 -1357 -25 -521 -177
-887 -509 -1234 -230 -239 -478 -417 -852 -609 -513 -262 -1024 -396 -1520
-398 -185 0 -289 12 -429 48 -485 126 -853 539 -955 1070 -66 339 -41 682 95
1285 106 470 263 919 430 1225 337 618 764 944 1349 1029 17 2 127 3 245 1
175 -2 235 -6 325 -24z"/>
<path d="M56745 15253 c-358 -29 -642 -75 -980 -159 -577 -144 -1240 -389
-1810 -669 -1020 -501 -1595 -1040 -1730 -1623 -24 -103 -20 -158 18 -237 113
-234 485 -548 1248 -1051 354 -233 446 -299 619 -438 142 -115 366 -334 458
-448 196 -243 314 -483 356 -727 28 -164 16 -375 -25 -433 -47 -65 -238 -126
-499 -158 -275 -34 -450 -41 -1315 -50 -764 -8 -1065 -17 -1265 -36 -87 -8
-259 -49 -340 -81 -132 -52 -291 -159 -435 -293 -45 -41 -116 -106 -159 -144
-200 -178 -365 -433 -366 -565 0 -39 5 -49 44 -86 148 -142 733 -213 1663
-202 440 5 564 14 863 63 597 96 1121 268 1725 564 604 296 1005 626 1284
1055 244 375 371 834 341 1234 -32 418 -210 780 -550 1120 -148 148 -303 267
-700 536 -887 602 -1462 1007 -1486 1047 -10 15 35 52 171 143 497 329 1083
511 1820 565 213 15 550 12 970 -10 495 -26 1224 -38 1318 -21 147 26 368 149
518 290 94 87 132 154 132 230 0 129 -107 233 -343 334 -249 106 -715 216
-1040 246 -105 10 -406 12 -505 4z"/>
</g>
</svg>
